<svg xmlns="http://www.w3.org/2000/svg" viewBox="0 0 517.75 341.66"><g id="Dog"><g id="Layer_7" data-name="Layer 7"><path d="M517.23,281.47S496,224,427.4,227.39,305,234.12,333.13,288.87s43.37,61.39,98.39,44.79S522.54,292,517.23,281.47Z" fill="#746cc6"/></g><g id="Layer_6" data-name="Layer 6"><path d="M517.23,281.47S496,224,427.4,227.39,305,234.12,333.13,288.87s43.37,61.39,98.39,44.79S522.54,292,517.23,281.47Z" fill="#746cc6"/><path d="M346.16,128.66c-15.65-1.63-19.67,26.24-1.67,24.2C360,151.17,363.31,127.74,346.16,128.66Z" fill="#111618"/></g><g id="Layer_5" data-name="Layer 5"><path d="M517.23,281.47S496,224,427.4,227.39,305,234.12,333.13,288.87s43.37,61.39,98.39,44.79S522.54,292,517.23,281.47Z" fill="#746cc6"/><path d="M346.16,128.66c-15.65-1.63-19.67,26.24-1.67,24.2C360,151.17,363.31,127.74,346.16,128.66Z" fill="#111618"/><ellipse cx="360.77" cy="101.64" rx="5.64" ry="6.4" fill="#111618"/></g><g id="Layer_4" data-name="Layer 4"><path d="M517.23,281.47S496,224,427.4,227.39,305,234.12,333.13,288.87s43.37,61.39,98.39,44.79S522.54,292,517.23,281.47Z" fill="#746cc6"/><path d="M346.16,128.66c-15.65-1.63-19.67,26.24-1.67,24.2C360,151.17,363.31,127.74,346.16,128.66Z" fill="#111618"/><ellipse cx="360.77" cy="101.64" rx="5.64" ry="6.4" fill="#111618"/><path d="M326.31,103.52c-3-1.52-6.46-2.11-9.08.49a8.94,8.94,0,0,0-1.71,9.81c2.57,5.45,10,7.11,14.17,2.46,2-2.19,3.14-6.12,1.51-8.79a9,9,0,0,0-2.61-2.6A19.12,19.12,0,0,0,326.31,103.52Z" fill="#111618"/></g><g id="Layer_3" data-name="Layer 3"><path d="M517.23,281.47S496,224,427.4,227.39,305,234.12,333.13,288.87s43.37,61.39,98.39,44.79S522.54,292,517.23,281.47Z" fill="#746cc6"/><path d="M346.16,128.66c-15.65-1.63-19.67,26.24-1.67,24.2C360,151.17,363.31,127.74,346.16,128.66Z" fill="#111618"/><ellipse cx="360.77" cy="101.64" rx="5.64" ry="6.4" fill="#111618"/><path d="M326.31,103.52c-3-1.52-6.46-2.11-9.08.49a8.94,8.94,0,0,0-1.71,9.81c2.57,5.45,10,7.11,14.17,2.46,2-2.19,3.14-6.12,1.51-8.79a9,9,0,0,0-2.61-2.6A19.12,19.12,0,0,0,326.31,103.52Z" fill="#111618"/><path d="M379.78,34.6C363.64,25,296.64-12.18,223.24,6.83,104.72,36.91-.22,227.44,54,298c31.82,29.59,83.91,32.12,138.53,25.71,10.94-1,14.22-21.7,9.13-28.2-4.48-5.72-28.49,4.39-23.23-1.66,76.11-106.91-36.72-115.18-48.94-51.43" fill="none" stroke="#111618" stroke-linecap="round" stroke-miterlimit="10" stroke-width="3"/><path d="M247,152c12.17,43.78,86.27,45.15,100.86,2.46,3.75-.05,9,9.71,10,11.09,10.75,17.27,24.6,18.51,39.8,5.55,37-25.63,29.47-61.73,10.5-96.26,5.21-14.91,55.18-102.44-9.56-57.67C384.85,29.5,367.38,42.68,363,61.47,348.56,44.19,321.36,48.76,304.66,60c-10.11-28.48-66.79-19.48-83.9-2.22.3,12.68,45.48,8.89,52.59,32.69" fill="none" stroke="#111618" stroke-linecap="round" stroke-miterlimit="10" stroke-width="3"/><path d="M39.09,245.66c-11.31-42.48-9.75-89.24,7.08-130,5.42-14.9,21.4-20.59,27-35.09,2-6,5.63-19.45,2.84-25.41-10.8-12.61-28.52,2.15-35.76,11.67-30.09,38.89-44.4,92.39-36.73,141,3,11.62,20.23,80.88,37.55,64.92" fill="none" stroke="#111618" stroke-linecap="round" stroke-miterlimit="10" stroke-width="3"/><path d="M261.3,245.72c9.23-8,16.29-14.89,18.49-18.48" fill="none" stroke="#111618" stroke-linecap="round" stroke-miterlimit="10" stroke-width="3"/><path d="M194.85,293.35c6.24-1.68,22.69-12.87,39.52-25.75" fill="none" stroke="#111618" stroke-linecap="round" stroke-miterlimit="10" stroke-width="3"/><path d="M326.55,178.36a204.61,204.61,0,0,1,22.6,67.15c2.76,16.35,41.81,40.05,43,12.25-7.3-25-32.53-49.84-19-77.35" fill="none" stroke="#111618" stroke-linecap="round" stroke-miterlimit="10" stroke-width="3"/><path d="M316.53,90.27a35.3,35.3,0,0,1-22.73,13.16" fill="none" stroke="#111618" stroke-linecap="round" stroke-miterlimit="10" stroke-width="3"/><path d="M356.13,79c1.4,8.16,9.88,14.41,18.08,13.35" fill="none" stroke="#111618" stroke-linecap="round" stroke-miterlimit="10" stroke-width="3"/><path d="M324.48,102.44c-12.16-2-22.49,11.75-19.08,23.17,6.27,0,17.16-4,22.31-8.43C334.16,113.18,331.48,103.45,324.48,102.44Z" fill="none" stroke="#111618" stroke-linecap="round" stroke-miterlimit="10" stroke-width="3"/><path d="M363.23,95.88c-11.34-.59-18.82,14.92-15.31,24.46C357.06,125.6,373.26,101.31,363.23,95.88Z" fill="none" stroke="#111618" stroke-linecap="round" stroke-miterlimit="10" stroke-width="3"/><path d="M318.19,182.3c3,4.91,9,11.8,15.34,10.64" fill="none" stroke="#111618" stroke-linecap="round" stroke-miterlimit="10" stroke-width="3"/><path d="M369.64,190.89a15.71,15.71,0,0,0,13-10.64" fill="none" stroke="#111618" stroke-linecap="round" stroke-miterlimit="10" stroke-width="3"/><path d="M398.43,288.34c-14.14-3.47,18.72,8.37,22.84-14.14" fill="none" stroke="#111618" stroke-linecap="round" stroke-miterlimit="10" stroke-width="3"/><path d="M389,278.38s20,9.15,22.42-9.5" fill="none" stroke="#111618" stroke-linecap="round" stroke-miterlimit="10" stroke-width="3"/><path d="M254.44,273c2.86-10.19,8.77-39.64,9-55" fill="none" stroke="#111618" stroke-linecap="round" stroke-miterlimit="10" stroke-width="3"/><path d="M234.26,229.17c-2.53,18.34,3.72,24,.11,42.11-.75,3.76-3.48,9.2-1.78,13,2.07,4.63,4.71,4.08,9.13,4.21,7.14-.22,10.05,1.56,18.94-1,6.88-3.33-.41-15.12-6.22-14.45" fill="none" stroke="#111618" stroke-linecap="round" stroke-miterlimit="10" stroke-width="3"/><path d="M280.08,219.85c2.23,11.45-13.18,35.77,4.54,33,5.38-.67,8.22.05,16.92,2.71,17.21,4.08,11.83-16.34-.93-18.88,3.13-14.45,6-35.23,7.68-49.79" fill="none" stroke="#111618" stroke-linecap="round" stroke-miterlimit="10" stroke-width="3"/></g></g></svg>